PathFileType	4	(X/Y/Z)	69_1_41_p0_0-246_filt_butterworth.trc
DataRate	CameraRate	NumFrames	NumMarkers	Units	OrigDataRate	OrigDataStartFrame	OrigNumFrames
60.0	60.0	6	27	m	60.0	30	246
Frame#	Time	RHip			RKnee			RAnkle			RBigToe			RSmallToe			RHeel			LHip			LKnee			LAnkle			LBigToe			LSmallToe			LHeel			Neck			Head			Nose			RShoulder			RElbow			RWrist			RThumb			RIndex			RPinky			LShoulder			LElbow			LWrist			LThumb			LIndex			LPinky			
		X1	Y1	Z1	X2	Y2	Z2	X3	Y3	Z3	X4	Y4	Z4	X5	Y5	Z5	X6	Y6	Z6	X7	Y7	Z7	X8	Y8	Z8	X9	Y9	Z9	X10	Y10	Z10	X11	Y11	Z11	X12	Y12	Z12	X13	Y13	Z13	X14	Y14	Z14	X15	Y15	Z15	X16	Y16	Z16	X17	Y17	Z17	X18	Y18	Z18	X19	Y19	Z19	X20	Y20	Z20	X21	Y21	Z21	X22	Y22	Z22	X23	Y23	Z23	X24	Y24	Z24	X25	Y25	Z25	X26	Y26	Z26	X27	Y27	Z27	
30	0.5	0.2847483143318089	0.5218895789853472	0.4998269989090584	0.25327840071581337	0.5394843286378853	0.9204709323639028	0.2168874649686216	0.5699506723175374	1.3138836776128195	0.26299868933466947	0.42349153419361696	1.3232308185978665	0.3123154765651333	0.47235430684226976	1.3226220167553817	0.16854294171845274	0.6605250065198259	1.399978726782744	0.09838012570008493	0.48485881521233914	0.5070040762686401	0.0522452904128522	0.5147862747066919	0.9256588103277059	0.02946735453657747	0.5761198908037067	1.335182875215391	0.11917611402871842	0.3703167128375866	1.3039206578907512	0.06622986321081077	0.3929100167468407	1.307724525584424	0.034928980809631624	0.6033234375889631	1.3800583383349139	0.23172635738008557	0.48781461845450325	-0.012388915966520413	0.2568694365181997	0.4577376088234096	-0.26010066686438693	0.28472213420516196	0.34646493858590927	-0.1367784451033709	0.3644670113750904	0.5275589648794714	0.0758783474968149	0.3989840880003792	0.518056156247413	0.3135795880950474	0.31371716366207913	0.36276000619840065	0.45883510569324437	0.23604356858569217	0.2830047982846274	0.5179304688918036	0.2267725351307996	0.28895532669830803	0.5465573254988875	0.23341440670085603	0.3531465937211835	0.5656965595895804	0.0731770474611296	0.41953614767466774	0.040598387540045605	0.03949253619204704	0.3900896659321729	0.2887225805893723	0.14454066109723668	0.3207766540509198	0.4308909035449092	0.23733808450238042	0.270464561095719	0.46830932855527185	0.2375764256678311	0.26267986982583186	0.5210367603949249	0.2186640826903507	0.2746540298369495	0.5411714558741468
31	0.5166666666666667	0.28530012810989136	0.5256685091055731	0.49891020765975463	0.2539355752296884	0.539616745746656	0.9177278684374434	0.21805307106741634	0.5683534323943823	1.312822258491971	0.2631374039417951	0.42302339713391135	1.3227380483910356	0.3132983998267602	0.47090117890837535	1.3224251314210433	0.1685210400389331	0.6602726990364973	1.400027302820564	0.09704059432458939	0.4917844681158714	0.5064357989088236	0.05269220328809372	0.5135468693407136	0.9208504634916871	0.029802781010102822	0.5731894797918385	1.3339457578807559	0.11909325130748886	0.3740296223376726	1.3047867241419477	0.06469867988649225	0.3946921872249268	1.3089293129584418	0.03490026294070802	0.6032960281859273	1.380171197552489	0.23157945063097807	0.4878484646347971	-0.011996312475281228	0.25686894071865934	0.45776839772130534	-0.26011582308754694	0.2873842657478685	0.3465285186092126	-0.1373770768175682	0.3635928379929532	0.5271012744586455	0.07551794524222451	0.4011846642479039	0.5173460972161967	0.3132307415420419	0.3165026700314175	0.3726552635218025	0.4617544508427739	0.24098207570222543	0.2840120029641163	0.520268127038404	0.2276248306809923	0.2940116994154619	0.5502562755914038	0.2332862410630548	0.36391522901351286	0.5680764767557754	0.07305239696622498	0.4194802285070086	0.04026689195443979	0.04050177335636172	0.3917402550149154	0.2878838576342439	0.14394034561462582	0.32097672667050814	0.4367491451642976	0.2426073218063022	0.260655629584001	0.4753580836373408	0.23389926406892575	0.25751418351902466	0.5257159229661998	0.20991836138929265	0.2693705262536195	0.5416836372950476
32	0.5333333333333333	0.283954264689725	0.5290813776230386	0.4981370546865915	0.2542558982015899	0.5396227467206377	0.9151114208541856	0.22063759311729067	0.5647972472722065	1.310550358523044	0.2632997149933176	0.42262825160569595	1.3223243800654072	0.31553108744378683	0.4678810427757797	1.3205723116942032	0.16838833337945844	0.6596064576885647	1.397843793140992	0.09638582008612473	0.49713698291655206	0.5058162091726537	0.05302996253344064	0.5121169353904979	0.9157074665195266	0.030510267549555818	0.567162131958151	1.331677581631609	0.11895085219425465	0.37671473303284914	1.3052499537063122	0.06392146505468317	0.3955861421698729	1.309563843200172	0.03486983614475405	0.6031107230004356	1.3806235468311394	0.23137537282012807	0.48804425552092406	-0.011895223831258317	0.25686575393132177	0.4578333507057645	-0.26017673211988435	0.2893940274828882	0.3465249972286876	-0.13843606413416124	0.36314112441486424	0.526834695401232	0.07545702990207757	0.4030208073127991	0.5184590099157131	0.31340012901262	0.322393448643181	0.3815440088038041	0.46385384268056595	0.2508552486610425	0.2848463071784042	0.521369992079579	0.23578369968046756	0.2969964339313749	0.5516370191383543	0.24421131484694109	0.3648594710085201	0.5678383091692376	0.07315789009869567	0.41944459613158874	0.04023316093827217	0.041890823358129145	0.393929117138934	0.2868872483254669	0.14221174587309815	0.32031796204599744	0.44290220242814304	0.24209920045664174	0.25644474172197007	0.48601952146940086	0.22482359588339387	0.25473750106253884	0.5304628634241305	0.20055371663932817	0.26476343559231	0.5423518167131449
33	0.55	0.2796599368125297	0.5332558029059873	0.4982532157679738	0.2541240204839134	0.5392735451011368	0.9129029490585654	0.22392598514899828	0.560260965592939	1.3077369537878027	0.26339264237174725	0.4225758369116153	1.3220636581191691	0.3184018089247558	0.4641123293109416	1.3178201822849889	0.16816425739873248	0.658776565743098	1.394513313047334	0.095607550565561	0.4981651825977149	0.5050367718001961	0.05309270552454298	0.510934161677113	0.9112813876691571	0.031329512008621954	0.5608692260953176	1.3295950523295996	0.11886396356003451	0.3777300463304269	1.3055259112601236	0.06475731396619	0.39460772035087793	1.3089866889898076	0.034848818387489475	0.6027110775645569	1.381587129087596	0.23139483071359726	0.4880402175026064	-0.011973251164888404	0.25686920047732265	0.4579128476930205	-0.26029877195849177	0.28992814854318294	0.34640887158950673	-0.13967276192112085	0.36296024636978114	0.5267260047342303	0.07545365284511274	0.40211905722979735	0.5226995622038862	0.3147516946892441	0.33183459991934594	0.387246087423036	0.46479053339564114	0.2659818837476471	0.2833593702831564	0.5215978120325829	0.25578720787827797	0.29252654261567124	0.5489099155755841	0.2681816731040152	0.35176277518342824	0.5658859031838164	0.07406413600304468	0.4194467290621261	0.0402076349361299	0.04287347838044494	0.39545397465086723	0.2863204616421456	0.13989399380884115	0.3181350060779356	0.4484748847079202	0.23461740929566696	0.2573393500998184	0.49809680354291314	0.21361343228342655	0.2530630927419945	0.5339616537039762	0.19272038520989537	0.2636336442553577	0.5441516974673863
34	0.5666666666666667	0.27425605661021163	0.5397620856994758	0.4994888198139143	0.2534403083781944	0.5384548277780619	0.9104846879060333	0.22643633640216992	0.556796089973953	1.3056911223418197	0.2633644406957906	0.4228939777373662	1.322108299076298	0.3206075778737155	0.4612686442051384	1.3158375389444192	0.16829728493766202	0.6579409104062162	1.3918074646865308	0.09475623056423702	0.4952205496225059	0.5035928032113083	0.05291633985068024	0.5102354008562211	0.9074440395609173	0.03187395835869205	0.5579056571565331	1.328890907698242	0.11884569406606812	0.3777702775684186	1.3063478058632905	0.06634277125387046	0.39273133679970906	1.3079225717538563	0.03482483779329674	0.6022148316750012	1.382816972347244	0.2322586560640183	0.4870038043927898	-0.012411704289174924	0.2568827009471073	0.457988516243778	-0.260363077154428	0.2890432716035077	0.34604267692600266	-0.14062797302443797	0.36268742425279626	0.5265907429578387	0.07541588134142174	0.3980313188025617	0.5292649831563085	0.31692600939207943	0.344445054275618	0.38689057694970574	0.46392415568579715	0.28406829216354745	0.27975302423388854	0.5214934115123921	0.2845143501493861	0.28232337967339227	0.5437666328028312	0.29730759295345666	0.3288859004778954	0.5638124607081195	0.07610782294829672	0.4195703906881814	0.04008979154244927	0.043038066434653174	0.39569664359282475	0.2867003603153989	0.13855170053757646	0.31455946016909375	0.4528659652895038	0.22378691379672438	0.25887695700303615	0.5089958318176941	0.2054002357546319	0.2489347053363783	0.5353299792815305	0.18599829613918187	0.266262869670322	0.5474202707279537
35	0.5833333333333334	0.2704852862887215	0.5479601495638291	0.5006661209687537	0.25236048670972355	0.5374379847014217	0.9076716487846549	0.22748880566827515	0.5553590083326495	1.304871212612458	0.26329946920546693	0.42342766600880877	1.3227329785602195	0.3216465387117458	0.45989443593975776	1.315270273088526	0.16986947382722004	0.6566286210313417	1.3902408437895843	0.09539488852351542	0.49089213744906807	0.5004404036973653	0.05290759983249609	0.5097655767713376	0.903936873091616	0.032281722569184976	0.5579021902662376	1.3292306176263586	0.11884480187501036	0.37761098912451274	1.308106579171528	0.06739174809083828	0.3914193734800956	1.307373177808528	0.03482929013169644	0.6018451374984168	1.3838656436111056	0.23442356723053837	0.48430752580460334	-0.013365015732084474	0.2568994947331853	0.45803265312998476	-0.26004079622960935	0.2873048741826836	0.34548247601585574	-0.14100749570374693	0.3625409646692953	0.5265714071011435	0.07541195645705455	0.3930679606762222	0.5359693055164593	0.3187721559305953	0.3591276422954236	0.3792246339035163	0.4611214283232318	0.3008465026465808	0.27756545964894846	0.521563993067988	0.3122459613593183	0.27340633919945945	0.5401601205065835	0.3213611616790459	0.3074874015133639	0.5626380290726551	0.07856265959463372	0.4198868512544775	0.040071258426632485	0.042834960853118505	0.39520374331445496	0.28811529081221166	0.13831477070768883	0.3108474821790475	0.4563227133183917	0.2134332952909	0.25795939048294625	0.5176557335294172	0.20123018501229017	0.24127084956700165	0.535380439282189	0.17713092521379714	0.27172849671347254	0.5520939443494121
